<?xml version="1.0" encoding="UTF-8" standalone="no"?>
<svg width="49px" height="43px" viewBox="0 0 49 43" version="1.1" xmlns="http://www.w3.org/2000/svg" xmlns:xlink="http://www.w3.org/1999/xlink" xmlns:sketch="http://www.bohemiancoding.com/sketch/ns">
    <!-- Generator: Sketch 3.3.3 (12081) - http://www.bohemiancoding.com/sketch -->
    <title>iron-yard-logo</title>
    <desc>Created with Sketch.</desc>
    <defs></defs>
    <g id="Page-1" stroke="none" stroke-width="1" fill="none" fill-rule="evenodd" sketch:type="MSPage">
        <g id="Lesson-page---Alt" sketch:type="MSArtboardGroup" transform="translate(-149.000000, -16.000000)">
            <g id="iron-yard-logo" sketch:type="MSLayerGroup" transform="translate(149.000000, 16.000000)">
                <path d="M46.8489495,13.4279798 L25.7730101,1.5170202 C25.1949091,1.17253535 24.2515354,1.17253535 23.6734343,1.5170202 L2.59749495,13.4279798 C2.02038384,13.7739495 1.54820202,14.6054646 1.54820202,15.2790909 L1.54820202,32.6879495 C1.54820202,33.3610808 2.07482828,34.0683636 2.71925253,34.260899 L23.5516768,41.8534242 C24.196101,42.0479394 25.2498485,42.0479394 25.8937778,41.8534242 L46.7271919,34.260899 C47.3711212,34.0683636 47.8982424,33.3615758 47.8982424,32.6879495 L47.8982424,15.2790909 C47.8982424,14.6054646 47.4250707,13.7739495 46.8489495,13.4279798 L46.8489495,13.4279798 Z" id="Shape" fill="#FFFFFF" sketch:type="MSShapeGroup"></path>
                <g id="Group" fill="#202F37" sketch:type="MSShapeGroup">
                    <path d="M19.6202929,27.2039091 L19.0694141,28.9312828 L20.6784949,28.9312828 L20.1424646,27.2039091 L19.6202929,27.2039091 Z" id="Shape"></path>
                    <path d="M21.1897778,19.6509798 C21.285303,19.5455556 21.3070808,19.384697 21.3070808,19.0016061 C21.3070808,18.6165354 21.285303,18.4576566 21.1897778,18.3522323 C21.1264242,18.286899 21.0086263,18.2661111 20.6992828,18.2661111 L19.0308081,18.2661111 L19.0308081,19.737101 L20.6997778,19.737101 C21.0091212,19.7366061 21.1264242,19.7158182 21.1897778,19.6509798 L21.1897778,19.6509798 Z" id="Shape"></path>
                    <path d="M29.762303,11.7976162 C29.762303,11.7327778 29.7222121,11.7085253 29.664798,11.7085253 C29.6083737,11.7085253 29.5341313,11.7426768 29.4935455,11.7669293 C28.9486061,12.1401212 28.4036667,12.6370505 28.0289899,13.0933939 C28.0938283,13.190899 28.1834141,13.1993131 28.224,13.1993131 C28.6882626,13.1988182 29.762303,12.0510303 29.762303,11.7976162 L29.762303,11.7976162 Z" id="Shape"></path>
                    <path d="M28.5041414,18.3294646 L27.4291111,18.3294646 C27.1093737,18.3294646 27.0044444,18.3522323 26.9391111,18.4150909 C26.8643737,18.4898283 26.8104242,18.7239394 26.8104242,20.3538081 C26.8104242,21.9950606 26.8638788,22.2192727 26.9391111,22.2935152 C27.0044444,22.3588485 27.1098687,22.3796364 27.4291111,22.3796364 L28.5041414,22.3796364 C28.8238788,22.3796364 28.929303,22.3588485 28.9946364,22.2935152 C29.0688788,22.2187778 29.1228283,21.9846667 29.1228283,20.3538081 C29.1228283,18.7239394 29.0693737,18.4898283 28.9946364,18.4150909 C28.929303,18.3522323 28.8233838,18.3294646 28.5041414,18.3294646 L28.5041414,18.3294646 Z" id="Shape"></path>
                    <path d="M28.5729394,26.9376263 L26.9029798,26.9376263 L26.9029798,28.4086162 L28.5729394,28.4086162 C28.8822828,28.4086162 28.9990909,28.3863434 29.0624444,28.3224949 C29.1584646,28.2175657 29.1812323,28.0567071 29.1812323,27.6731212 C29.1812323,27.2895354 29.1584646,27.1291717 29.0624444,27.0222626 C28.9995859,26.9589091 28.8822828,26.9376263 28.5729394,26.9376263 L28.5729394,26.9376263 Z" id="Shape"></path>
                    <path d="M36.8425556,26.9589091 L35.0854848,26.9589091 L35.1057778,31.0937172 L36.8425556,31.0937172 C37.3241414,31.0937172 37.504798,31.0610505 37.6112121,30.9561212 C37.7285152,30.8373333 37.7705859,30.5190808 37.7705859,29.027303 C37.7705859,27.5241414 37.7285152,27.2157879 37.6112121,27.097 C37.504303,26.9905859 37.3236465,26.9589091 36.8425556,26.9589091 L36.8425556,26.9589091 Z" id="Shape"></path>
                    <path d="M47.8794343,13.0458788 L25.8220101,0.580575758 C25.2171818,0.219757576 24.2297576,0.219757576 23.6249293,0.580575758 L1.5670101,13.0458788 C0.963171717,13.4081818 0.468717172,14.278303 0.468717172,14.9831111 L0.468717172,33.2031919 C0.468717172,33.9075051 1.02009091,34.6474545 1.69470707,34.848899 L23.4972323,42.7948182 C24.1718485,42.9982424 25.274596,42.9982424 25.9487172,42.7948182 L47.7522323,34.848899 C48.4258586,34.6474545 48.9782222,33.9075051 48.9782222,33.2031919 L48.9782222,14.9831111 C48.9777273,14.278798 48.4822828,13.4081818 47.8794343,13.0458788 L47.8794343,13.0458788 Z M47.8794343,1113.04588 L25.8220101,1100.58058 C25.2171818,1100.21976 24.2297576,1100.21976 23.6249293,1100.58058 L1.5670101,1113.04588 C0.963171717,1113.40818 0.468717172,1114.2783 0.468717172,1114.98311 L0.468717172,1133.20319 C0.468717172,1133.90751 1.02009091,1134.64745 1.69470707,1134.8489 L23.4972323,1142.79482 C24.1718485,1142.99824 25.274596,1142.99824 25.9487172,1142.79482 L47.7522323,1134.8489 C48.4258586,1134.64745 48.9782222,1133.90751 48.9782222,1133.20319 L48.9782222,1114.98311 C48.9777273,1114.2788 48.4822828,1113.40818 47.8794343,1113.04588 L47.8794343,1113.04588 Z M18.4576566,8.39632323 C19.2980808,8.0340202 20.5616869,8.1849798 22.1727475,8.1849798 C25.9655455,8.1849798 29.6603434,7.95482828 29.8241717,7.95482828 C29.929101,7.95482828 29.9538485,7.85880808 30.6858788,8.44482828 C30.791798,8.53441414 31.0773838,8.70467677 31.0773838,8.83633333 C31.0773838,8.93383838 30.7353737,9.00659596 30.5240303,9.03134343 C29.9286061,9.10063636 29.1792525,9.16448485 28.4383131,9.21793939 C27.8735758,9.37533333 27.4459394,9.71635354 27.1009596,10.0425253 C25.9942525,11.0947879 25.2216364,11.6417071 25.0147475,11.9030404 C25.5443434,11.6431919 25.852697,11.4486768 26.2768687,11.4486768 C26.5297879,11.4486768 27.0019697,11.7085253 27.0019697,12.0431111 C27.0019697,12.1406162 26.9688081,12.181202 26.8302222,12.3029596 C26.4397071,12.6375455 25.1944141,13.6130909 25.1944141,14.0288485 C25.1944141,14.1115051 25.2429192,14.1421919 25.3008283,14.1421919 C25.4631717,14.1421919 25.9680202,13.808101 26.4397071,13.4423333 C26.7139091,13.2309899 26.9970202,12.8300808 27.0801717,12.7033737 C27.312798,12.3544343 27.6320404,12.0317273 27.9636566,11.7327778 C28.6140202,11.1467576 29.1109495,10.8869091 29.4212828,10.8869091 C29.5920404,10.8869091 29.8187273,11.0576667 30.0241313,11.2863333 C30.3156566,11.554596 30.340404,11.6936768 30.340404,11.7981111 C30.340404,12.5806263 28.9976061,13.6878283 28.3878283,13.6878283 C28.2165758,13.6878283 27.9720707,13.5903232 27.7933939,13.4017475 C27.6389697,13.6373434 27.5483939,13.8417576 27.5483939,13.9877677 C27.5483939,14.1179394 27.6152121,14.2896869 27.8666465,14.2896869 C28.0131515,14.2896869 28.1908384,14.239202 28.2903232,14.2085152 C29.7786364,13.661596 30.5596667,12.9374848 30.634899,12.9374848 C30.6987475,12.9374848 30.7061717,12.9879697 30.7061717,13.0186566 C30.7061717,13.1082424 30.3814848,13.4829192 30.0473939,13.7848384 C29.4529596,14.3287879 28.6481717,14.8999596 27.8508081,14.8999596 C27.5033535,14.8999596 26.7703333,14.1144747 26.7272727,13.7704848 C26.2323232,14.2263333 25.4062525,14.8252222 25.0241515,14.8252222 C24.5613737,14.8252222 24.3242929,14.2555354 24.3242929,13.8496768 C24.3242929,13.3369091 24.9518889,12.7345556 25.5042525,12.1886263 C24.8697273,12.4583737 24.1535354,13.0686465 23.0215859,14.4520303 C22.9562525,14.5252828 22.8176667,14.8499697 22.7280808,14.8499697 C22.5736566,14.8499697 22.0361414,14.4178788 22.0361414,14.1179394 C22.0361414,14.0773535 22.0608889,14.004101 22.1093939,13.9313434 C23.1225556,12.4504545 25.2439091,10.4924343 26.5411717,9.32732323 C26.2115354,9.34167677 25.921,9.34959596 25.7131212,9.34959596 C25.460697,9.34959596 24.7207475,9.95194949 24.1659091,10.4894646 C23.5145556,11.1225051 21.8718182,12.7266364 20.805202,14.1115051 C20.1696869,14.9316364 20.2513535,15.1929697 20.129101,15.1929697 C19.8029293,15.1929697 19.2411616,14.2238586 19.2411616,14.0372626 C19.2411616,13.524 20.7146263,12.1084444 21.4555657,11.3907677 C22.7008586,10.1875455 23.4170505,9.56093939 23.5635556,9.44710101 C23.6293838,9.39859596 23.7595556,9.30752525 23.7595556,9.30752525 C22.0356465,9.00560606 20.2092828,8.47947475 19.1144545,8.78287879 C17.7360202,9.16448485 17.0119091,12.1272525 19.0070505,11.4115556 C19.8504444,11.1096364 20.6200909,10.4523434 21.0813838,9.88067677 C21.2600606,9.65794949 21.373899,9.76881818 21.1813636,10.0707374 C20.5611919,11.0413333 19.6069293,11.9634242 17.7607677,12.0272727 C16.0076566,12.0866667 16.346697,9.30752525 18.4576566,8.39632323 L18.4576566,8.39632323 Z M31.4238485,20.354303 C31.4238485,22.4118081 31.1798384,23.2542121 30.7408182,23.6793737 C30.4547374,23.9684242 30.1335152,24.0847374 29.3564444,24.0847374 L26.5763131,24.0847374 C25.7992424,24.0847374 25.4790101,23.9684242 25.1924343,23.6793737 C24.7534141,23.2542121 24.509899,22.4118081 24.509899,20.354303 C24.509899,18.2972929 24.7534141,17.4563737 25.1924343,17.0307172 C25.4795051,16.7416667 25.7992424,16.6248586 26.5763131,16.6248586 L29.3564444,16.6248586 C30.1335152,16.6248586 30.4547374,16.7416667 30.7408182,17.0307172 C31.1798384,17.4558788 31.4238485,18.296798 31.4238485,20.354303 L31.4238485,20.354303 Z M16.0576465,22.422202 L16.8451111,22.422202 L16.8451111,18.286899 L16.0576465,18.286899 L16.0576465,16.6243636 L21.8297475,16.6243636 C22.4687273,16.6243636 22.8849798,16.7317677 23.1720505,17.0173535 C23.5036667,17.3484747 23.6090909,17.7642323 23.6090909,18.6912727 C23.6090909,20.0147677 23.2576768,20.3325253 22.3949798,20.5032828 L23.5244545,22.422202 L24.2376768,22.422202 L24.2376768,24.0842424 L21.9336869,24.0842424 L20.2830303,21.2709495 L19.0308081,21.2709495 L19.0308081,22.422202 L19.8400505,22.422202 L19.8400505,24.0842424 L16.0576465,24.0842424 L16.0576465,22.422202 L16.0576465,22.422202 Z M8.98828283,22.422202 L10.9982727,22.422202 L10.9982727,18.286899 L8.98828283,18.286899 L8.98828283,16.6243636 L15.4572727,16.6243636 L15.4572727,18.286899 L13.4487677,18.286899 L13.4487677,22.422202 L15.4572727,22.422202 L15.4572727,24.0842424 L8.98828283,24.0842424 L8.98828283,22.422202 L8.98828283,22.422202 Z M14.9187677,32.7562525 L11.0502424,32.7562525 L11.0502424,31.0942121 L11.8921515,31.0942121 L11.8921515,29.9335556 L9.72823232,26.9589091 L8.98877778,26.9589091 L8.98877778,25.2963737 L12.8612626,25.2963737 L12.8612626,26.9376263 L12.2118889,26.9376263 L13.0315253,28.2175657 L13.0740909,28.2175657 L13.9595556,26.9376263 L13.3091919,26.9376263 L13.3091919,25.2963737 L17.0396263,25.2963737 L17.0396263,26.9589091 L16.2828485,26.9589091 L14.0763636,29.9008889 L14.0763636,31.0937172 L14.9187677,31.0937172 L14.9187677,32.7562525 L14.9187677,32.7562525 Z M39.2960202,32.1687475 C38.8485859,32.6171717 38.2719697,32.7562525 37.1964444,32.7562525 L32.9997677,32.7562525 L32.1177677,32.7562525 L29.8083333,32.7562525 L28.155697,29.9424646 L26.9034747,29.9424646 L26.9034747,31.0937172 L27.7137071,31.0937172 L27.7137071,32.7557576 L24.2376768,32.7557576 L23.9303131,32.7557576 L20.5824747,32.7557576 L20.5824747,31.1258889 L21.2645152,31.1258889 L21.0833636,30.4864141 L18.6635556,30.4864141 L18.492798,31.1258889 L19.1748384,31.1258889 L19.1748384,32.7557576 L15.4572727,32.7557576 L15.4572727,31.0937172 L16.3090808,31.0937172 L18.2854141,25.264202 L21.6406768,25.264202 L23.6090909,31.0937172 L23.9303131,31.0937172 L24.2376768,31.0937172 L24.7187677,31.0937172 L24.7187677,26.9589091 L23.9308081,26.9589091 L23.9308081,25.2963737 L29.7043939,25.2963737 C30.3423838,25.2963737 30.7586364,25.4032828 31.046697,25.6908485 C31.3773232,26.0219697 31.4827475,26.4362424 31.4827475,27.3652626 C31.4827475,28.684798 31.1313333,29.0065152 30.2681414,29.1767778 L31.3981111,31.0942121 L32.1182626,31.0942121 L32.9002828,31.0942121 L32.9002828,26.959404 L32.1123232,26.959404 L32.1123232,25.2968687 L37.1964444,25.2968687 C38.2719697,25.2968687 38.8485859,25.4349596 39.2960202,25.8833838 C39.8058182,26.3951616 40.0735859,27.1628283 40.0735859,29.0282929 C40.0735859,30.8907879 39.8058182,31.6589495 39.2960202,32.1687475 L39.2960202,32.1687475 Z M40.4576667,18.286899 L39.6880202,18.286899 L39.6880202,24.0842424 L37.2340606,24.0842424 L34.6068687,19.8326263 L34.6068687,22.4217071 L35.3943333,22.4217071 L35.4047273,24.0837475 L31.8470303,24.0837475 L31.8470303,22.4217071 L32.6349899,22.4217071 L32.6349899,18.286404 L31.8470303,18.286404 L31.8470303,16.6238687 L35.2384242,16.6238687 L37.7181212,20.4389394 L37.7181212,18.2859091 L36.9831212,18.2859091 L36.9831212,16.6233737 L40.4581616,16.6233737 L40.4581616,18.286899 L40.4576667,18.286899 Z" id="Shape"></path>
                </g>
            </g>
        </g>
    </g>
</svg>